<svg width="800" height="800" viewBox="0 0 800 800" fill="none" xmlns="http://www.w3.org/2000/svg">
  <!-- Isometric cube base -->
  <path d="M400 150L600 250L400 350L200 250L400 150Z" fill="#2563EB" stroke="#1E40AF" stroke-width="2"/>
  <path d="M400 350L600 250L600 450L400 550L400 350Z" fill="#1D4ED8" stroke="#1E40AF" stroke-width="2"/>
  <path d="M400 350L400 550L200 450L200 250L400 350Z" fill="#3B82F6" stroke="#1E40AF" stroke-width="2"/>
  
  <!-- Desk top -->
  <path d="M400 230L530 300L400 370L270 300L400 230Z" fill="#FBBF24" stroke="#D97706" stroke-width="2"/>
  
  <!-- Computer -->
  <rect x="380" y="250" width="40" height="30" rx="2" transform="skew(-30 0)" fill="#1F2937" stroke="#111827" stroke-width="1"/>
  <rect x="390" y="230" width="30" height="20" rx="1" transform="skew(-30 0)" fill="#374151" stroke="#111827" stroke-width="1"/>
  
  <!-- Wall with chart -->
  <path d="M290 180L290 310L230 280L230 150L290 180Z" fill="#60A5FA" stroke="#2563EB" stroke-width="2"/>
  
  <!-- Charts -->
  <path d="M260 200L260 270L250 265L250 195L260 200Z" fill="#F59E0B" stroke="#D97706" stroke-width="1"/>
  <path d="M270 205L270 260L260 255L260 200L270 205Z" fill="#F97316" stroke="#C2410C" stroke-width="1"/>
  <path d="M280 210L280 250L270 245L270 205L280 210Z" fill="#F43F5E" stroke="#BE185D" stroke-width="1"/>
  
  <!-- Chair -->
  <path d="M340 320L340 370L320 360L320 310L340 320Z" fill="#4B5563" stroke="#374151" stroke-width="1"/>
  <path d="M360 330L360 380L340 370L340 320L360 330Z" fill="#374151" stroke="#1F2937" stroke-width="1"/>
  <path d="M320 310L360 330L340 340L300 320L320 310Z" fill="#6B7280" stroke="#4B5563" stroke-width="1"/>
</svg> 